<?xml version="1.0" encoding="UTF-8"?>
<!DOCTYPE svg PUBLIC "-//W3C//DTD SVG 1.0//EN" "http://www.w3.org/TR/2001/REC-SVG-20010904/DTD/svg10.dtd">
<!-- Creator: CorelDRAW 2021 (64-Bit) -->
<svg xmlns="http://www.w3.org/2000/svg" xml:space="preserve" width="1588px" height="559px" version="1.0" style="shape-rendering:geometricPrecision; text-rendering:geometricPrecision; image-rendering:optimizeQuality; fill-rule:evenodd; clip-rule:evenodd"
viewBox="0 0 1369.41 481.88"
 xmlns:xlink="http://www.w3.org/1999/xlink"
 xmlns:xodm="http://www.corel.com/coreldraw/odm/2003">
 <defs>
  <style type="text/css">
   <![CDATA[
    .fil1 {fill:#D9DADA}
    .fil0 {fill:#D9DADA;fill-rule:nonzero}
   ]]>
  </style>
 </defs>
 <g id="Layer_x0020_1">
  <metadata id="CorelCorpID_0Corel-Layer"/>
  <g id="_2549398708848">
   <path class="fil0" d="M222.31 357.27c-24.56,14.13 -55.1,21.2 -91.63,21.2 -40.43,0 -72.35,-11.2 -95.71,-33.6 -23.29,-22.39 -34.97,-53.24 -34.97,-92.52 0,-39.53 12.76,-71.75 38.27,-96.66 25.45,-24.98 59.41,-37.43 101.75,-37.43 26.65,0 50.19,3.71 70.49,11.07l0 53.19c-19.41,-11.26 -43.12,-16.83 -71.21,-16.83 -23.54,0 -42.64,7.6 -57.43,22.87 -14.85,15.28 -22.22,35.64 -22.22,61.15 0,25.81 6.65,45.82 19.88,60.01 13.3,14.13 31.2,21.2 53.78,21.2 13.6,0 24.38,-1.92 32.28,-5.75l0 -49.17 -50.3 0 0 -45.27 107.02 0 0 126.54zm199.84 16.83l-150.92 0 0 -251.59 145.11 0 0 46.11 -88.39 0 0 56 82.29 0 0 45.93 -82.29 0 0 57.55 94.2 0 0 46zm190.15 0l-149.84 0 0 -251.59 56.71 0 0 205.59 93.13 0 0 46zm33.84 0l0 -251.59 89.17 0c89.35,0 134.03,40.84 134.03,122.65 0,39.17 -12.22,70.43 -36.59,93.84 -24.37,23.42 -56.83,35.1 -97.44,35.1l-89.17 0zm56.71 -205.48l0 159.48 28.09 0c24.55,0 43.78,-7.36 57.79,-22.09 13.96,-14.74 20.96,-34.8 20.96,-60.19 0,-23.96 -6.94,-42.82 -20.78,-56.54 -13.89,-13.77 -33.3,-20.66 -58.33,-20.66l-27.73 0zm424.07 205.48l-61.74 0 -17.91 -56 -89.47 0 -17.73 56 -61.45 0 91.63 -251.59 67.2 0 89.47 251.59zm-79.65 -56l-40 -128.04c-1.99,-6.34 -4.11,-13.89 -4.95,-22.64l0 0c-0.59,7.37 -2.83,14.65 -5.06,21.92l-39.46 128.76 89.47 0zm322.14 56l-65.1 0 -39.1 -64.74c-2.94,-4.91 -5.75,-9.28 -8.45,-13.18 -2.69,-3.83 -5.39,-7.12 -8.14,-9.88 -2.76,-2.75 -5.63,-4.85 -8.63,-6.35 -2.99,-1.43 -6.23,-2.15 -9.7,-2.15l-15.27 0 0 96.3 -56.72 0 0 -251.59 89.84 0c61.08,0 91.63,22.82 91.63,68.39 0,8.8 -1.38,16.89 -4.08,24.31 -2.69,7.43 -6.46,14.14 -11.37,20.13 -4.92,5.93 -10.84,11.08 -17.79,15.39 -7.01,4.37 -14.73,7.72 -23.3,10.18l0 0.72c3.77,1.2 7.37,3.05 10.9,5.69 3.53,2.63 6.89,5.69 10.18,9.22 3.3,3.53 6.41,7.31 9.4,11.32 3,4.01 5.69,7.96 8.15,11.86l47.55 74.38zm-154.39 -209.13l0 70.01 24.55 0c12.16,0 21.92,-3.54 29.29,-10.54 7.48,-7.13 11.26,-15.99 11.26,-26.47 0,-22.04 -13.18,-33 -39.53,-33l-25.57 0z"/>
   <path class="fil1" d="M1003.85 0c26.59,0 48.15,21.56 48.15,48.15 0,26.59 -21.56,48.15 -48.15,48.15 -26.59,0 -48.15,-21.56 -48.15,-48.15 0,-26.59 21.56,-48.15 48.15,-48.15zm0.21 24.73c13.07,0 23.66,10.6 23.66,23.67 0,13.06 -10.59,23.66 -23.66,23.66 -13.07,0 -23.67,-10.6 -23.67,-23.66 0,-13.07 10.6,-23.67 23.67,-23.67z"/>
   <path class="fil0" d="M47.9 480.85l0 -61.75 8.39 0 32.4 48.47 0 -48.47 7.85 0 0 61.75 -8.4 0 -32.39 -48.47 0 48.47 -7.85 0zm208.69 0l0 -61.75 44.59 0 0 7.24 -36.4 0 0 18.98 34.07 0 0 7.24 -34.07 0 0 21.04 37.86 0 0 7.25 -46.05 0zm219.2 0l0 -54.51 -20.35 0 0 -7.24 48.9 0 0 7.24 -20.35 0 0 54.51 -8.2 0zm193.79 0l-16.26 -61.75 8.49 0 9.25 40.49c1.01,4.24 1.9,8.45 2.66,12.62 1.62,-6.58 2.57,-10.38 2.85,-11.38l11.67 -41.73 9.84 0 8.86 31.26c2.17,7.76 3.78,15.05 4.81,21.85 0.82,-3.9 1.87,-8.37 3.15,-13.41l9.64 -39.7 8.21 0 -16.9 61.75 -7.95 0 -12.95 -47.05c-1.09,-3.93 -1.75,-6.35 -2,-7.24 -0.7,2.82 -1.34,5.23 -1.88,7.23l-12.95 47.06 -8.54 0zm214.4 -30.06c0,-10.23 2.76,-18.25 8.27,-24.04 5.5,-5.8 12.6,-8.68 21.31,-8.68 5.71,0 10.84,1.36 15.42,4.08 4.57,2.71 8.07,6.51 10.47,11.38 2.4,4.86 3.61,10.38 3.61,16.54 0,6.26 -1.27,11.86 -3.8,16.79 -2.53,4.95 -6.11,8.68 -10.74,11.21 -4.64,2.55 -9.64,3.81 -15,3.81 -5.82,0 -11.01,-1.41 -15.6,-4.21 -4.57,-2.8 -8.05,-6.62 -10.4,-11.48 -2.36,-4.85 -3.54,-9.98 -3.54,-15.4zm8.45 0.15c0,7.43 2,13.28 6,17.55 3.99,4.27 9.01,6.41 15.04,6.41 6.16,0 11.2,-2.16 15.18,-6.47 3.97,-4.31 5.95,-10.44 5.95,-18.37 0,-5.02 -0.84,-9.4 -2.54,-13.14 -1.7,-3.73 -4.18,-6.64 -7.45,-8.69 -3.27,-2.06 -6.94,-3.09 -11.01,-3.09 -5.77,0 -10.75,1.98 -14.91,5.95 -4.17,3.97 -6.26,10.58 -6.26,19.85zm207.46 29.91l0 -61.75 27.37 0c5.5,0 9.68,0.56 12.54,1.67 2.87,1.1 5.15,3.06 6.86,5.86 1.71,2.8 2.56,5.91 2.56,9.3 0,4.39 -1.42,8.08 -4.26,11.08 -2.83,3.01 -7.2,4.9 -13.12,5.72 2.17,1.04 3.81,2.07 4.93,3.08 2.39,2.18 4.64,4.93 6.76,8.22l10.68 16.82 -10.21 0 -8.16 -12.85c-2.37,-3.72 -4.34,-6.56 -5.88,-8.52 -1.55,-1.97 -2.93,-3.34 -4.15,-4.13 -1.21,-0.78 -2.46,-1.32 -3.73,-1.64 -0.92,-0.19 -2.43,-0.29 -4.54,-0.29l-9.46 0 0 27.43 -8.19 0zm8.19 -34.5l17.54 0c3.74,0 6.64,-0.39 8.74,-1.16 2.1,-0.76 3.69,-2 4.77,-3.71 1.09,-1.7 1.64,-3.54 1.64,-5.53 0,-2.92 -1.05,-5.34 -3.16,-7.22 -2.12,-1.88 -5.45,-2.82 -10.01,-2.82l-19.52 0 0 20.44zm199.73 34.5l0 -61.75 8.19 0 0 30.62 30.67 -30.62 11.07 0 -25.9 25.04 27.02 36.71 -10.78 0 -21.98 -31.16 -10.1 9.77 0 21.39 -8.19 0z"/>
  </g>
 </g>
</svg>
